<svg width="60" height="31" viewBox="0 0 60 31" fill="none" xmlns="http://www.w3.org/2000/svg">
<path fill-rule="evenodd" clip-rule="evenodd" d="M30.3968 30.4918C32.8248 30.4918 34.5524 29.7319 35.2995 29.067V23.9375C34.7392 24.365 33.6186 24.8873 32.1711 24.8873C31.1439 24.8873 30.3968 24.6499 29.8365 24.1274C29.3696 23.6525 29.1361 22.8451 29.1361 21.7527V0H22.9727V6.41187H35.2995V12.4912H22.9727V23.2725C22.9727 25.4574 23.6264 27.2147 24.7937 28.4495C26.1011 29.7793 28.0155 30.4918 30.3968 30.4918M49.2604 30.4916C52.7156 30.4916 55.3771 29.2092 57.1981 27.4044C58.6456 25.9796 59.5327 24.3173 59.9996 22.6074L54.5366 20.7552C54.3032 21.61 53.8362 22.5124 53.0891 23.2249C52.202 24.0798 50.988 24.6972 49.2604 24.6972C47.6728 24.6972 46.1787 24.0798 45.1047 22.9874C44.0308 21.8475 43.3771 20.1852 43.3771 18.0954C43.3771 15.9582 44.0308 14.3434 45.1047 13.2034C46.1787 12.1111 47.6261 11.541 49.2137 11.541C50.8946 11.541 52.0619 12.1111 52.9024 12.966C53.6027 13.6784 54.023 14.5808 54.3032 15.4832L59.8596 13.5834C59.4393 11.921 58.5521 10.2588 57.2448 8.88143C55.3771 7.0291 52.6689 5.69922 49.0736 5.69922C45.7584 5.69922 42.7701 6.98158 40.6223 9.16634C38.4743 11.3986 37.167 14.4858 37.167 18.0954C37.167 21.705 38.5211 24.7922 40.7156 27.0245C42.8635 29.2092 45.8985 30.4916 49.2604 30.4916M9.85218 30.4916C12.9806 30.4916 15.5487 29.4942 17.2296 27.8319C18.4903 26.5495 19.2374 24.8397 19.2374 22.8449C19.2374 21.0401 18.5837 19.4253 17.3697 18.1904C16.1556 16.9555 14.4281 16.0531 12.2335 15.6257L8.63813 14.9133C7.14398 14.6283 6.30355 13.8684 6.30355 12.8235C6.30355 11.4461 7.61089 10.4962 9.71209 10.4962C11.0194 10.4962 12.1401 10.9237 12.8872 11.6836C13.3541 12.2061 13.681 12.871 13.7743 13.6309L18.9572 12.4435C18.8171 10.9237 18.1168 9.59382 17.0428 8.50148C15.3619 6.79156 12.7471 5.69922 9.66537 5.69922C6.81717 5.69922 4.43579 6.64915 2.80156 8.16897C1.40078 9.49877 0.606987 11.3037 0.606987 13.2984C0.606987 15.0557 1.16733 16.5281 2.28794 17.668C3.40855 18.8079 5.04285 19.6627 7.19071 20.1852L10.7393 21.0401C12.5137 21.4675 13.3074 22.1325 13.3074 23.3199C13.3074 24.7922 12 25.6471 9.85218 25.6471C8.31131 25.6471 7.05062 25.1247 6.25683 24.2698C5.69648 23.6998 5.36967 22.9398 5.32295 22.085L0 23.2724C0.140086 24.8871 0.887158 26.3121 2.00777 27.4519C3.78208 29.3517 6.63036 30.4916 9.85218 30.4916" fill="#4F008C"/>
</svg>
