<svg width="105" height="26" viewBox="0 0 105 26" fill="none" xmlns="http://www.w3.org/2000/svg">
<path fill-rule="evenodd" clip-rule="evenodd" d="M25.3304 25.4098C27.3537 25.4098 28.7934 24.7765 29.4159 24.2225V19.9479C28.949 20.3041 28.0152 20.7394 26.8089 20.7394C25.9529 20.7394 25.3304 20.5416 24.8634 20.1062C24.4743 19.7104 24.2798 19.0376 24.2798 18.1273V0H19.1436V5.34322H29.4159V10.4094H19.1436V19.3938C19.1436 21.2145 19.6883 22.6789 20.6611 23.7079C21.7506 24.8161 23.3459 25.4098 25.3304 25.4098ZM41.0505 25.4098C43.9298 25.4098 46.1477 24.3412 47.6652 22.8372C48.8715 21.6498 49.6108 20.2645 49.9999 18.8397L45.4473 17.2961C45.2528 18.0085 44.8637 18.7605 44.2411 19.3543C43.5018 20.0667 42.4902 20.5812 41.0505 20.5812C39.7275 20.5812 38.4824 20.0667 37.5874 19.1563C36.6925 18.2064 36.1477 16.8212 36.1477 15.0797C36.1477 13.2986 36.6925 11.953 37.5874 11.003C38.4824 10.0927 39.6886 9.61769 41.0116 9.61769C42.4123 9.61769 43.3851 10.0927 44.0855 10.8051C44.6691 11.3988 45.0193 12.1508 45.2528 12.9028L49.8831 11.3196C49.5329 9.93432 48.7936 8.54913 47.7042 7.40135C46.1477 5.85775 43.8909 4.74951 40.8948 4.74951C38.1322 4.74951 35.6419 5.81814 33.852 7.63878C32.0621 9.49901 30.9727 12.0717 30.9727 15.0797C30.9727 18.0877 32.101 20.6603 33.9298 22.5205C35.7197 24.3412 38.2489 25.4098 41.0505 25.4098ZM8.21015 25.4098C10.8171 25.4098 12.9572 24.5787 14.358 23.1934C15.4086 22.1247 16.0312 20.6999 16.0312 19.0376C16.0312 17.5336 15.4864 16.1879 14.4748 15.1588C13.463 14.1298 12.0234 13.3778 10.1946 13.0215L7.19844 12.4279C5.95332 12.1904 5.25296 11.5571 5.25296 10.6864C5.25296 9.53855 6.3424 8.74701 8.09341 8.74701C9.18286 8.74701 10.1168 9.10324 10.7393 9.7365C11.1284 10.1719 11.4008 10.726 11.4786 11.3593L15.7977 10.3698C15.6809 9.10324 15.0973 7.99501 14.2023 7.08473C12.8015 5.6598 10.6226 4.74951 8.05448 4.74951C5.68097 4.74951 3.69649 5.54112 2.33463 6.80763C1.16732 7.9158 0.505822 9.41987 0.505822 11.0822C0.505822 12.5466 0.972774 13.7735 1.90661 14.7235C2.84046 15.6734 4.20238 16.3858 5.99225 16.8212L8.94945 17.5336C10.428 17.8898 11.0895 18.4439 11.0895 19.4334C11.0895 20.6603 10 21.3728 8.21015 21.3728C6.9261 21.3728 5.87552 20.9374 5.21402 20.225C4.74707 19.75 4.47472 19.1167 4.43579 18.4043L0 19.3938C0.116738 20.7395 0.739298 21.9269 1.67314 22.8768C3.15174 24.4599 5.5253 25.4098 8.21015 25.4098Z" fill="white"/>
<path d="M64.6108 17.6704H60.4307V19.0966H62.9282C62.6121 20.5359 61.5214 21.4563 59.9301 21.4563C57.9981 21.4563 56.7748 20.0556 56.7748 17.969C56.7748 15.8684 57.9972 14.4818 59.9169 14.4818C61.3501 14.4818 62.2704 15.1299 62.6779 16.102H64.5318C63.9539 14.1191 62.1782 12.9133 59.8906 12.9133C56.9987 12.9133 55 15.0131 55 17.9558C55 20.8468 56.9987 23.0115 59.8388 23.0115C61.3238 23.0115 62.4549 22.3898 63.1644 21.3649V22.8174H64.6108V17.6704ZM70.0669 16.167H66.5832V17.5931H70.0011C70.3822 17.5931 70.5929 17.8004 70.5929 18.2026V18.5389L67.8715 18.8762C66.6886 19.0193 65.9781 19.7965 65.9781 20.925C65.9781 22.1693 66.938 23.0115 68.3448 23.0115C69.3442 23.0115 70.1196 22.6488 70.5929 22.0007V22.8174H72.2097V18.0076C72.2097 16.8283 71.4474 16.167 70.0669 16.167ZM68.74 21.7417C68.0304 21.7417 67.6221 21.4431 67.6221 20.925C67.6221 20.4446 67.9382 20.1469 68.5169 20.0687L70.5938 19.7833V20.6264C70.3181 21.2876 69.5541 21.7417 68.74 21.7417ZM81.795 15.9852C81.3635 15.9815 80.937 16.0779 80.5491 16.2669C80.1611 16.4558 79.8223 16.7321 79.5592 17.0741C79.2307 16.4006 78.6002 15.9852 77.7185 15.9852C76.9035 15.9852 76.1545 16.3224 75.6416 16.8932V16.167H74.103V22.8174H75.6416V18.358C75.9314 17.8399 76.5224 17.4632 77.088 17.4632C77.8897 17.4632 78.2313 17.9945 78.2313 18.7207V22.8174H79.7831V18.2281C80.0852 17.7872 80.6244 17.4641 81.1504 17.4641C81.939 17.4641 82.2947 17.9945 82.2947 18.7207V22.8174H83.8455V18.2026C83.8455 16.8801 83.0701 15.9852 81.795 15.9852ZM88.1056 14.9358V13.0942H86.4616V14.9358H88.1056ZM86.4616 22.8174H88.1056V16.167H85.0811V17.5931H86.4616V22.8174ZM94.0351 15.9852C93.062 15.9852 92.2471 16.3488 91.6947 16.9969V16.167H90.0516V22.8174H91.6947V18.6039C92.0109 17.9304 92.8126 17.4632 93.5354 17.4632C94.4952 17.4632 94.9159 18.0981 94.9159 18.9666V22.8174H96.5589V18.5653C96.5589 17.0223 95.6123 15.9852 94.0351 15.9852ZM103.396 16.167V16.8801C102.91 16.297 102.186 15.9852 101.292 15.9852C99.4517 15.9852 98.1239 17.3859 98.1239 19.382C98.1239 21.3913 99.4517 22.8043 101.292 22.8043C102.199 22.8043 102.91 22.4802 103.396 21.8971V22.8947C103.396 23.6473 103.014 24.01 102.358 24.01H99.5298V25.4098H102.41C104.172 25.4098 105 24.4763 105 23.0124V16.1661L103.396 16.167ZM101.569 21.3658C100.504 21.3658 99.7933 20.6264 99.7933 19.3811C99.7933 18.1631 100.504 17.4245 101.568 17.4245C102.45 17.4245 103.054 17.8777 103.396 18.5653V20.2119C103.054 20.8854 102.45 21.3658 101.569 21.3658Z" fill="#FF6A39"/>
</svg>
