<svg width="130" height="30" viewBox="0 0 130 30" fill="none" xmlns="http://www.w3.org/2000/svg">
<path fill-rule="evenodd" clip-rule="evenodd" d="M30.3953 30C32.8233 30 34.5509 29.2523 35.298 28.5982V23.5514C34.7377 23.972 33.6171 24.4859 32.1696 24.4859C31.1424 24.4859 30.3953 24.2524 29.835 23.7383C29.3681 23.271 29.1346 22.4766 29.1346 21.4019V0H22.9712V6.30845H35.298V12.2898H22.9712V22.8972C22.9712 25.0468 23.6249 26.7757 24.7922 27.9906C26.0996 29.299 28.014 30 30.3953 30M49.2594 30.0004C52.7146 30.0004 55.3761 28.7387 57.1971 26.963C58.6446 25.5612 59.5318 23.9257 59.9987 22.2434L54.5357 20.421C54.3022 21.2621 53.8352 22.15 53.0882 22.8509C52.201 23.692 50.987 24.2995 49.2594 24.2995C47.6719 24.2995 46.1777 23.692 45.1038 22.6172C44.0299 21.4958 43.3762 19.8603 43.3762 17.8042C43.3762 15.7014 44.0299 14.1127 45.1038 12.9911C46.1777 11.9164 47.6251 11.3555 49.2127 11.3555C50.8937 11.3555 52.0609 11.9164 52.9014 12.7575C53.6018 13.4584 54.0221 14.3462 54.3022 15.2341L59.8586 13.3649C59.4384 11.7294 58.5512 10.0939 57.2439 8.73882C55.3761 6.91636 52.668 5.60793 49.0726 5.60793C45.7575 5.60793 42.7692 6.86961 40.6213 9.01913C38.4734 11.2154 37.166 14.2528 37.166 17.8042C37.166 21.3556 38.5201 24.3929 40.7147 26.5892C42.8625 28.7387 45.8975 30.0004 49.2594 30.0004M9.85218 30.0004C12.9806 30.0004 15.5487 29.0191 17.2296 27.3836C18.4903 26.1219 19.2374 24.4397 19.2374 22.477C19.2374 20.7013 18.5837 19.1126 17.3697 17.8976C16.1557 16.6827 14.4281 15.7948 12.2335 15.3743L8.63813 14.6734C7.14399 14.393 6.30355 13.6453 6.30355 12.6173C6.30355 11.2621 7.61089 10.3276 9.7121 10.3276C11.0194 10.3276 12.1401 10.7481 12.8872 11.4958C13.3541 12.0098 13.681 12.664 13.7743 13.4117L18.9572 12.2435C18.8171 10.7481 18.1168 9.43971 17.0428 8.36499C15.3619 6.68265 12.7471 5.60793 9.66537 5.60793C6.81717 5.60793 4.43579 6.54254 2.80156 8.03784C1.40078 9.3462 0.606987 11.122 0.606987 13.0845C0.606987 14.8135 1.16733 16.2621 2.28794 17.3837C3.40855 18.5051 5.04285 19.3462 7.19071 19.8603L10.7393 20.7013C12.5137 21.1219 13.3074 21.7761 13.3074 22.9444C13.3074 24.3929 12 25.2341 9.85218 25.2341C8.31132 25.2341 7.05062 24.7201 6.25683 23.879C5.69648 23.3182 5.36967 22.5705 5.32295 21.7294L0 22.8976C0.140086 24.4864 0.887158 25.8883 2.00777 27.0098C3.78208 28.8789 6.63036 30.0004 9.85218 30.0004" fill="#4F008C"/>
<path d="M81.5329 20.7127H76.5168V22.4241H79.5138C79.1345 24.1513 77.8256 25.2557 75.9161 25.2557C73.5977 25.2557 72.1298 23.5748 72.1298 21.071C72.1298 18.5502 73.5967 16.8863 75.9003 16.8863C77.6201 16.8863 78.7245 17.664 79.2135 18.8306H81.4381C80.7447 16.451 78.6139 15.0042 75.8687 15.0042C72.3985 15.0042 70 17.5238 70 21.0552C70 24.5243 72.3985 27.122 75.8065 27.122C77.5885 27.122 78.9458 26.3759 79.7973 25.1461V26.8891H81.5329V20.7127ZM88.0803 18.9085H83.8998V20.6199H88.0013C88.4586 20.6199 88.7115 20.8686 88.7115 21.3513V21.7549L85.4458 22.1596C84.0263 22.3313 83.1737 23.264 83.1737 24.6181C83.1737 26.1114 84.3256 27.122 86.0138 27.122C87.213 27.122 88.1435 26.6867 88.7115 25.909V26.8891H90.6516V21.1173C90.6516 19.7021 89.7369 18.9085 88.0803 18.9085ZM86.488 25.5982C85.6365 25.5982 85.1465 25.2399 85.1465 24.6181C85.1465 24.0417 85.5259 23.6844 86.2203 23.5906L88.7126 23.2481V24.2598C88.3817 25.0533 87.4649 25.5982 86.488 25.5982ZM102.154 18.6904C101.636 18.686 101.124 18.8017 100.659 19.0284C100.193 19.2551 99.7867 19.5867 99.471 19.9971C99.0769 19.1888 98.3202 18.6904 97.2622 18.6904C96.2842 18.6904 95.3853 19.0951 94.7699 19.78V18.9085H92.9236V26.8891H94.7699V21.5378C95.1177 20.9161 95.8269 20.464 96.5056 20.464C97.4677 20.464 97.8776 21.1015 97.8776 21.973V26.8891H99.7397V21.3818C100.102 20.8528 100.749 20.465 101.381 20.465C102.327 20.465 102.754 21.1015 102.754 21.973V26.8891H104.615V21.3513C104.615 19.7642 103.684 18.6904 102.154 18.6904ZM109.727 17.4311V15.2212H107.754V17.4311H109.727ZM107.754 26.8891H109.727V18.9085H106.097V20.6199H107.754V26.8891ZM116.842 18.6904C115.674 18.6904 114.696 19.1267 114.034 19.9044V18.9085H112.062V26.8891H114.034V21.8329C114.413 21.0246 115.375 20.464 116.242 20.464C117.394 20.464 117.899 21.2259 117.899 22.2681V26.8891H119.871V21.7865C119.871 19.935 118.735 18.6904 116.842 18.6904ZM128.075 18.9085V19.7642C127.492 19.0645 126.624 18.6904 125.551 18.6904C123.342 18.6904 121.749 20.3712 121.749 22.7666C121.749 25.1777 123.342 26.8733 125.551 26.8733C126.639 26.8733 127.492 26.4844 128.075 25.7847V26.9818C128.075 27.8849 127.617 28.3202 126.829 28.3202H123.436V29.9999H126.892C129.006 29.9999 130 28.8797 130 27.123V18.9075L128.075 18.9085ZM125.883 25.1471C124.604 25.1471 123.752 24.2598 123.752 22.7655C123.752 21.3039 124.604 20.4176 125.882 20.4176C126.94 20.4176 127.665 20.9614 128.075 21.7865V23.7624C127.665 24.5707 126.94 25.1471 125.883 25.1471Z" fill="#FF375E"/>
</svg>
